<mxfile host="app.diagrams.net" modified="2023-01-21T17:20:32.426Z" agent="5.0 (Windows NT 10.0; Win64; x64) AppleWebKit/537.36 (KHTML, like Gecko) Chrome/109.0.0.0 Safari/537.36" etag="bvC7eMTSHVOEkcqDqvn_" version="20.8.10" type="github">
  <diagram name="Page-1" id="6nl35vsLAsva88mgKixI">
    <mxGraphModel dx="3475" dy="1353" grid="1" gridSize="10" guides="1" tooltips="1" connect="1" arrows="1" fold="1" page="1" pageScale="1" pageWidth="850" pageHeight="1100" math="0" shadow="0">
      <root>
        <mxCell id="0" />
        <mxCell id="1" parent="0" />
        <mxCell id="sVJqD786YdZGdAk7iiqr-3" value="" style="edgeStyle=orthogonalEdgeStyle;rounded=0;orthogonalLoop=1;jettySize=auto;html=1;" edge="1" parent="1" source="sVJqD786YdZGdAk7iiqr-1" target="sVJqD786YdZGdAk7iiqr-2">
          <mxGeometry relative="1" as="geometry" />
        </mxCell>
        <mxCell id="sVJqD786YdZGdAk7iiqr-17" style="edgeStyle=orthogonalEdgeStyle;rounded=0;orthogonalLoop=1;jettySize=auto;html=1;exitX=0;exitY=0.5;exitDx=0;exitDy=0;entryX=0.75;entryY=0;entryDx=0;entryDy=0;" edge="1" parent="1" source="sVJqD786YdZGdAk7iiqr-1" target="sVJqD786YdZGdAk7iiqr-4">
          <mxGeometry relative="1" as="geometry">
            <Array as="points">
              <mxPoint x="420" y="110" />
              <mxPoint x="420" y="240" />
              <mxPoint x="270" y="240" />
              <mxPoint x="270" y="300" />
            </Array>
          </mxGeometry>
        </mxCell>
        <mxCell id="sVJqD786YdZGdAk7iiqr-19" style="edgeStyle=orthogonalEdgeStyle;rounded=0;orthogonalLoop=1;jettySize=auto;html=1;exitX=0;exitY=0.5;exitDx=0;exitDy=0;entryX=0.5;entryY=0;entryDx=0;entryDy=0;" edge="1" parent="1" source="sVJqD786YdZGdAk7iiqr-1" target="sVJqD786YdZGdAk7iiqr-6">
          <mxGeometry relative="1" as="geometry">
            <Array as="points">
              <mxPoint x="400" y="110" />
              <mxPoint x="400" y="200" />
              <mxPoint x="30" y="200" />
            </Array>
          </mxGeometry>
        </mxCell>
        <mxCell id="sVJqD786YdZGdAk7iiqr-21" style="edgeStyle=orthogonalEdgeStyle;rounded=0;orthogonalLoop=1;jettySize=auto;html=1;exitX=0;exitY=0.25;exitDx=0;exitDy=0;entryX=0.5;entryY=0;entryDx=0;entryDy=0;" edge="1" parent="1" source="sVJqD786YdZGdAk7iiqr-1" target="sVJqD786YdZGdAk7iiqr-8">
          <mxGeometry relative="1" as="geometry">
            <Array as="points">
              <mxPoint x="380" y="170" />
              <mxPoint x="-210" y="170" />
            </Array>
          </mxGeometry>
        </mxCell>
        <mxCell id="sVJqD786YdZGdAk7iiqr-23" style="edgeStyle=orthogonalEdgeStyle;rounded=0;orthogonalLoop=1;jettySize=auto;html=1;exitX=1;exitY=0.5;exitDx=0;exitDy=0;entryX=0.25;entryY=0;entryDx=0;entryDy=0;" edge="1" parent="1" source="sVJqD786YdZGdAk7iiqr-1" target="sVJqD786YdZGdAk7iiqr-10">
          <mxGeometry relative="1" as="geometry">
            <Array as="points">
              <mxPoint x="460" y="110" />
              <mxPoint x="460" y="240" />
              <mxPoint x="620" y="240" />
              <mxPoint x="620" y="300" />
            </Array>
          </mxGeometry>
        </mxCell>
        <mxCell id="sVJqD786YdZGdAk7iiqr-26" style="edgeStyle=orthogonalEdgeStyle;rounded=0;orthogonalLoop=1;jettySize=auto;html=1;exitX=1;exitY=0.5;exitDx=0;exitDy=0;entryX=0.5;entryY=0;entryDx=0;entryDy=0;" edge="1" parent="1" source="sVJqD786YdZGdAk7iiqr-1" target="sVJqD786YdZGdAk7iiqr-12">
          <mxGeometry relative="1" as="geometry">
            <Array as="points">
              <mxPoint x="480" y="110" />
              <mxPoint x="480" y="200" />
              <mxPoint x="830" y="200" />
            </Array>
          </mxGeometry>
        </mxCell>
        <mxCell id="sVJqD786YdZGdAk7iiqr-28" style="edgeStyle=orthogonalEdgeStyle;rounded=0;orthogonalLoop=1;jettySize=auto;html=1;exitX=1;exitY=0;exitDx=0;exitDy=0;entryX=0.5;entryY=0;entryDx=0;entryDy=0;" edge="1" parent="1" source="sVJqD786YdZGdAk7iiqr-1" target="sVJqD786YdZGdAk7iiqr-14">
          <mxGeometry relative="1" as="geometry">
            <Array as="points">
              <mxPoint x="500" y="170" />
              <mxPoint x="1040" y="170" />
            </Array>
          </mxGeometry>
        </mxCell>
        <mxCell id="sVJqD786YdZGdAk7iiqr-37" style="rounded=0;orthogonalLoop=1;jettySize=auto;html=1;exitX=1;exitY=0.25;exitDx=0;exitDy=0;entryX=0;entryY=0.5;entryDx=0;entryDy=0;" edge="1" parent="1" source="sVJqD786YdZGdAk7iiqr-1" target="sVJqD786YdZGdAk7iiqr-40">
          <mxGeometry relative="1" as="geometry">
            <mxPoint x="620" y="29.999999999999886" as="targetPoint" />
          </mxGeometry>
        </mxCell>
        <mxCell id="sVJqD786YdZGdAk7iiqr-38" style="edgeStyle=none;rounded=0;orthogonalLoop=1;jettySize=auto;html=1;exitX=1;exitY=0.5;exitDx=0;exitDy=0;entryX=0;entryY=0.5;entryDx=0;entryDy=0;" edge="1" parent="1" source="sVJqD786YdZGdAk7iiqr-1" target="sVJqD786YdZGdAk7iiqr-41">
          <mxGeometry relative="1" as="geometry">
            <mxPoint x="630" y="109.66666666666674" as="targetPoint" />
          </mxGeometry>
        </mxCell>
        <mxCell id="sVJqD786YdZGdAk7iiqr-1" value="Home" style="rounded=0;whiteSpace=wrap;html=1;" vertex="1" parent="1">
          <mxGeometry x="360" y="80" width="160" height="60" as="geometry" />
        </mxCell>
        <mxCell id="sVJqD786YdZGdAk7iiqr-2" value="Authors &amp;amp; Events" style="rounded=0;whiteSpace=wrap;html=1;" vertex="1" parent="1">
          <mxGeometry x="380" y="300" width="120" height="60" as="geometry" />
        </mxCell>
        <mxCell id="sVJqD786YdZGdAk7iiqr-4" value="Popular" style="rounded=0;whiteSpace=wrap;html=1;" vertex="1" parent="1">
          <mxGeometry x="180" y="300" width="120" height="60" as="geometry" />
        </mxCell>
        <mxCell id="sVJqD786YdZGdAk7iiqr-6" value="Kids" style="rounded=0;whiteSpace=wrap;html=1;" vertex="1" parent="1">
          <mxGeometry x="-30" y="300" width="120" height="60" as="geometry" />
        </mxCell>
        <mxCell id="sVJqD786YdZGdAk7iiqr-8" value="Books" style="rounded=0;whiteSpace=wrap;html=1;" vertex="1" parent="1">
          <mxGeometry x="-280" y="310" width="120" height="60" as="geometry" />
        </mxCell>
        <mxCell id="sVJqD786YdZGdAk7iiqr-10" value="Recommendations" style="rounded=0;whiteSpace=wrap;html=1;" vertex="1" parent="1">
          <mxGeometry x="560" y="300" width="120" height="60" as="geometry" />
        </mxCell>
        <mxCell id="sVJqD786YdZGdAk7iiqr-12" value="Audio" style="rounded=0;whiteSpace=wrap;html=1;" vertex="1" parent="1">
          <mxGeometry x="770" y="300" width="120" height="60" as="geometry" />
        </mxCell>
        <mxCell id="sVJqD786YdZGdAk7iiqr-14" value="Search" style="rounded=0;whiteSpace=wrap;html=1;" vertex="1" parent="1">
          <mxGeometry x="980" y="300" width="120" height="60" as="geometry" />
        </mxCell>
        <mxCell id="sVJqD786YdZGdAk7iiqr-49" style="rounded=0;orthogonalLoop=1;jettySize=auto;html=1;exitX=1;exitY=0.5;exitDx=0;exitDy=0;edgeStyle=elbowEdgeStyle;" edge="1" parent="1">
          <mxGeometry relative="1" as="geometry">
            <mxPoint x="850" y="30" as="targetPoint" />
            <mxPoint x="760" y="51.999999999999886" as="sourcePoint" />
            <Array as="points">
              <mxPoint x="800" y="32" />
            </Array>
          </mxGeometry>
        </mxCell>
        <mxCell id="sVJqD786YdZGdAk7iiqr-40" value="Become a Member" style="rounded=0;whiteSpace=wrap;html=1;" vertex="1" parent="1">
          <mxGeometry x="640" y="40" width="120" height="40" as="geometry" />
        </mxCell>
        <mxCell id="sVJqD786YdZGdAk7iiqr-41" value="Shopping Cart" style="rounded=0;whiteSpace=wrap;html=1;" vertex="1" parent="1">
          <mxGeometry x="640" y="90" width="120" height="40" as="geometry" />
        </mxCell>
        <mxCell id="sVJqD786YdZGdAk7iiqr-50" style="rounded=0;orthogonalLoop=1;jettySize=auto;html=1;exitX=1;exitY=0.75;exitDx=0;exitDy=0;edgeStyle=elbowEdgeStyle;shadow=0;" edge="1" parent="1" source="sVJqD786YdZGdAk7iiqr-40">
          <mxGeometry relative="1" as="geometry">
            <mxPoint x="850" y="90" as="targetPoint" />
            <mxPoint x="750" y="69.99999999999977" as="sourcePoint" />
            <Array as="points" />
          </mxGeometry>
        </mxCell>
        <mxCell id="sVJqD786YdZGdAk7iiqr-51" value="Join Now" style="rounded=0;whiteSpace=wrap;html=1;" vertex="1" parent="1">
          <mxGeometry x="850" y="10" width="120" height="40" as="geometry" />
        </mxCell>
        <mxCell id="sVJqD786YdZGdAk7iiqr-52" value="Sign In" style="rounded=0;whiteSpace=wrap;html=1;" vertex="1" parent="1">
          <mxGeometry x="850" y="70" width="120" height="40" as="geometry" />
        </mxCell>
        <mxCell id="sVJqD786YdZGdAk7iiqr-56" value="Popular" style="rounded=0;whiteSpace=wrap;html=1;" vertex="1" parent="1">
          <mxGeometry x="-280" y="400" width="90" height="40" as="geometry" />
        </mxCell>
        <mxCell id="sVJqD786YdZGdAk7iiqr-57" value="Fiction" style="rounded=0;whiteSpace=wrap;html=1;" vertex="1" parent="1">
          <mxGeometry x="-280" y="800" width="90" height="40" as="geometry" />
        </mxCell>
        <mxCell id="sVJqD786YdZGdAk7iiqr-58" value="Non-Fiction" style="rounded=0;whiteSpace=wrap;html=1;" vertex="1" parent="1">
          <mxGeometry x="-280" y="1160" width="90" height="40" as="geometry" />
        </mxCell>
        <mxCell id="sVJqD786YdZGdAk7iiqr-62" value="News and Noteworthy" style="rounded=1;whiteSpace=wrap;html=1;fillColor=#fff2cc;strokeColor=#d6b656;" vertex="1" parent="1">
          <mxGeometry x="-180" y="420" width="100" height="40" as="geometry" />
        </mxCell>
        <mxCell id="sVJqD786YdZGdAk7iiqr-63" style="edgeStyle=elbowEdgeStyle;rounded=0;orthogonalLoop=1;jettySize=auto;html=1;exitX=0.75;exitY=1;exitDx=0;exitDy=0;entryX=1;entryY=1;entryDx=0;entryDy=0;shadow=0;" edge="1" parent="1" source="sVJqD786YdZGdAk7iiqr-56" target="sVJqD786YdZGdAk7iiqr-56">
          <mxGeometry relative="1" as="geometry" />
        </mxCell>
        <mxCell id="sVJqD786YdZGdAk7iiqr-65" value="Bestsellers" style="rounded=1;whiteSpace=wrap;html=1;fillColor=#fff2cc;strokeColor=#d6b656;" vertex="1" parent="1">
          <mxGeometry x="-180" y="470" width="100" height="40" as="geometry" />
        </mxCell>
        <mxCell id="sVJqD786YdZGdAk7iiqr-66" value="Must read books of 2022" style="rounded=1;whiteSpace=wrap;html=1;fillColor=#fff2cc;strokeColor=#d6b656;" vertex="1" parent="1">
          <mxGeometry x="-180" y="520" width="100" height="40" as="geometry" />
        </mxCell>
        <mxCell id="sVJqD786YdZGdAk7iiqr-67" value="Popular Series" style="rounded=1;whiteSpace=wrap;html=1;fillColor=#fff2cc;strokeColor=#d6b656;" vertex="1" parent="1">
          <mxGeometry x="-180" y="570" width="100" height="40" as="geometry" />
        </mxCell>
        <mxCell id="sVJqD786YdZGdAk7iiqr-70" value="Popular Series" style="rounded=1;whiteSpace=wrap;html=1;fillColor=#fff2cc;strokeColor=#d6b656;" vertex="1" parent="1">
          <mxGeometry x="-180" y="620" width="100" height="40" as="geometry" />
        </mxCell>
        <mxCell id="sVJqD786YdZGdAk7iiqr-71" value="Libros en espanol" style="rounded=1;whiteSpace=wrap;html=1;fillColor=#fff2cc;strokeColor=#d6b656;" vertex="1" parent="1">
          <mxGeometry x="-180" y="670" width="100" height="40" as="geometry" />
        </mxCell>
        <mxCell id="sVJqD786YdZGdAk7iiqr-72" value="Coming Soon" style="rounded=1;whiteSpace=wrap;html=1;fillColor=#fff2cc;strokeColor=#d6b656;" vertex="1" parent="1">
          <mxGeometry x="-180" y="720" width="100" height="40" as="geometry" />
        </mxCell>
        <mxCell id="sVJqD786YdZGdAk7iiqr-74" value="&lt;a style=&quot;box-sizing: border-box; -webkit-font-smoothing: antialiased; text-shadow: none; text-rendering: optimizelegibility; background: rgb(255, 255, 255); color: rgb(0, 0, 0); text-decoration: none; min-width: 100%; display: inherit; width: fit-content; font-family: Fort-Medium; font-size: 16px; font-style: normal; font-variant-ligatures: normal; font-variant-caps: normal; font-weight: 400; letter-spacing: -0.18px; orphans: 2; text-align: center; text-indent: 0px; text-transform: none; widows: 2; word-spacing: 0px; -webkit-text-stroke-width: 0px;&quot; data-location=&quot;header&quot; data-category=&quot;books&quot; data-element=&quot;books:fiction:classics&quot; tabindex=&quot;-1&quot; aria-label=&quot;Classics&quot; target=&quot;_self&quot; class=&quot;navigation-link no-mouse-outline&quot; href=&quot;https://www.penguinrandomhouse.com/books/classics/&quot;&gt;&lt;p style=&quot;box-sizing: border-box; -webkit-font-smoothing: antialiased; text-shadow: none; text-rendering: optimizelegibility; margin: 0px; font-family: Fort-Book; font-size: 14px; color: rgb(0, 0, 0); line-height: 20px; padding: 1px 0px 5px; width: fit-content; text-align: left;&quot; class=&quot;nav-child-text&quot;&gt;Classics&lt;/p&gt;&lt;/a&gt;&lt;a style=&quot;box-sizing: border-box; -webkit-font-smoothing: antialiased; text-shadow: none; text-rendering: optimizelegibility; background: rgb(255, 255, 255); color: rgb(0, 0, 0); text-decoration: none; min-width: 100%; display: inherit; width: fit-content; font-family: Fort-Medium; font-size: 16px; font-style: normal; font-variant-ligatures: normal; font-variant-caps: normal; font-weight: 400; letter-spacing: -0.18px; orphans: 2; text-align: center; text-indent: 0px; text-transform: none; widows: 2; word-spacing: 0px; -webkit-text-stroke-width: 0px;&quot; data-location=&quot;header&quot; data-category=&quot;books&quot; data-element=&quot;books:fiction:romance&quot; tabindex=&quot;-1&quot; aria-label=&quot;Romance&quot; target=&quot;_self&quot; class=&quot;navigation-link no-mouse-outline&quot; href=&quot;https://www.penguinrandomhouse.com/books/romance&quot;&gt;&lt;p style=&quot;box-sizing: border-box; -webkit-font-smoothing: antialiased; text-shadow: none; text-rendering: optimizelegibility; margin: 0px; font-family: Fort-Book; font-size: 14px; color: rgb(0, 0, 0); line-height: 20px; padding: 1px 0px 5px; width: fit-content; text-align: left;&quot; class=&quot;nav-child-text&quot;&gt;Romance&lt;/p&gt;&lt;/a&gt;&lt;a style=&quot;box-sizing: border-box; -webkit-font-smoothing: antialiased; text-shadow: none; text-rendering: optimizelegibility; background: rgb(255, 255, 255); color: rgb(0, 0, 0); text-decoration: none; min-width: 100%; display: inherit; width: fit-content; font-family: Fort-Medium; font-size: 16px; font-style: normal; font-variant-ligatures: normal; font-variant-caps: normal; font-weight: 400; letter-spacing: -0.18px; orphans: 2; text-align: center; text-indent: 0px; text-transform: none; widows: 2; word-spacing: 0px; -webkit-text-stroke-width: 0px;&quot; data-location=&quot;header&quot; data-category=&quot;books&quot; data-element=&quot;books:fiction:literary fiction&quot; tabindex=&quot;-1&quot; aria-label=&quot;Literary Fiction&quot; target=&quot;_self&quot; class=&quot;navigation-link no-mouse-outline&quot; href=&quot;https://www.penguinrandomhouse.com/books/literary-fiction&quot;&gt;&lt;p style=&quot;box-sizing: border-box; -webkit-font-smoothing: antialiased; text-shadow: none; text-rendering: optimizelegibility; margin: 0px; font-family: Fort-Book; font-size: 14px; color: rgb(0, 0, 0); line-height: 20px; padding: 1px 0px 5px; width: fit-content; text-align: left;&quot; class=&quot;nav-child-text&quot;&gt;Literary Fiction&lt;/p&gt;&lt;/a&gt;&lt;a style=&quot;box-sizing: border-box; -webkit-font-smoothing: antialiased; text-shadow: none; text-rendering: optimizelegibility; background: rgb(255, 255, 255); color: rgb(0, 0, 0); text-decoration: none; min-width: 100%; display: inherit; width: fit-content; font-family: Fort-Medium; font-size: 16px; font-style: normal; font-variant-ligatures: normal; font-variant-caps: normal; font-weight: 400; letter-spacing: -0.18px; orphans: 2; text-align: center; text-indent: 0px; text-transform: none; widows: 2; word-spacing: 0px; -webkit-text-stroke-width: 0px;&quot; data-location=&quot;header&quot; data-category=&quot;books&quot; data-element=&quot;books:fiction:mystery&quot; tabindex=&quot;-1&quot; aria-label=&quot;Mystery&quot; target=&quot;_self&quot; class=&quot;navigation-link no-mouse-outline&quot; href=&quot;https://www.penguinrandomhouse.com/books/mystery-suspense&quot;&gt;&lt;p style=&quot;box-sizing: border-box; -webkit-font-smoothing: antialiased; text-shadow: none; text-rendering: optimizelegibility; margin: 0px; font-family: Fort-Book; font-size: 14px; color: rgb(0, 0, 0); line-height: 20px; padding: 1px 0px 5px; width: fit-content; text-align: left;&quot; class=&quot;nav-child-text&quot;&gt;Mystery&lt;/p&gt;&lt;/a&gt;&lt;a style=&quot;box-sizing: border-box; -webkit-font-smoothing: antialiased; text-shadow: none; text-rendering: optimizelegibility; background: rgb(255, 255, 255); color: rgb(0, 0, 0); text-decoration: none; min-width: 100%; display: inherit; width: fit-content; font-family: Fort-Medium; font-size: 16px; font-style: normal; font-variant-ligatures: normal; font-variant-caps: normal; font-weight: 400; letter-spacing: -0.18px; orphans: 2; text-align: center; text-indent: 0px; text-transform: none; widows: 2; word-spacing: 0px; -webkit-text-stroke-width: 0px;&quot; data-location=&quot;header&quot; data-category=&quot;books&quot; data-element=&quot;books:fiction:science fiction &amp;amp; fantasy&quot; tabindex=&quot;-1&quot; aria-label=&quot;Science Fiction &amp;amp; Fantasy&quot; target=&quot;_self&quot; class=&quot;navigation-link no-mouse-outline&quot; href=&quot;https://www.penguinrandomhouse.com/books/science-fiction-fantasy&quot;&gt;&lt;p style=&quot;box-sizing: border-box; -webkit-font-smoothing: antialiased; text-shadow: none; text-rendering: optimizelegibility; margin: 0px; font-family: Fort-Book; font-size: 14px; color: rgb(0, 0, 0); line-height: 20px; padding: 1px 0px 5px; width: fit-content; text-align: left;&quot; class=&quot;nav-child-text&quot;&gt;Science Fiction &amp;amp; Fantasy&lt;/p&gt;&lt;/a&gt;&lt;a style=&quot;box-sizing: border-box; -webkit-font-smoothing: antialiased; text-shadow: none; text-rendering: optimizelegibility; background: rgb(255, 255, 255); color: rgb(0, 0, 0); text-decoration: none; outline: 0px; min-width: 100%; cursor: pointer; display: inherit; width: fit-content; font-family: Fort-Medium; font-size: 16px; font-style: normal; font-variant-ligatures: normal; font-variant-caps: normal; font-weight: 400; letter-spacing: -0.18px; orphans: 2; text-align: center; text-indent: 0px; text-transform: none; widows: 2; word-spacing: 0px; -webkit-text-stroke-width: 0px;&quot; data-location=&quot;header&quot; data-category=&quot;books&quot; data-element=&quot;books:fiction:view all&quot; tabindex=&quot;-1&quot; aria-label=&quot;view all Fiction&quot; target=&quot;_self&quot; class=&quot;navigation-link no-mouse-outline no-outline&quot; href=&quot;https://www.penguinrandomhouse.com/books/fiction/&quot;&gt;&lt;p style=&quot;box-sizing: border-box; -webkit-font-smoothing: antialiased; text-shadow: none; text-rendering: optimizelegibility; margin: 0px 0px 21px; font-family: Fort-Book; font-size: 14px; color: rgb(0, 0, 0); line-height: 20px; padding: 1px 0px 5px; width: fit-content; text-align: left; text-decoration: underline;&quot; class=&quot;nav-child-text nav-child-view-all&quot;&gt;View All&lt;span&gt;&amp;nbsp;&lt;/span&gt;&lt;span style=&quot;box-sizing: border-box; -webkit-font-smoothing: antialiased; text-shadow: none; text-rendering: optimizelegibility; transition: padding-left 0.3s ease 0s; padding-left: 0px;&quot; class=&quot;view-all-caret&quot;&gt;&amp;gt;&lt;/span&gt;&lt;/p&gt;&lt;/a&gt;" style="text;whiteSpace=wrap;html=1;" vertex="1" parent="1">
          <mxGeometry x="400" y="440" width="180" height="200" as="geometry" />
        </mxCell>
        <mxCell id="sVJqD786YdZGdAk7iiqr-75" value="Coming Soon" style="rounded=1;whiteSpace=wrap;html=1;fillColor=#fff2cc;strokeColor=#d6b656;" vertex="1" parent="1">
          <mxGeometry x="-180" y="820" width="100" height="40" as="geometry" />
        </mxCell>
        <mxCell id="sVJqD786YdZGdAk7iiqr-76" value="Coming Soon" style="rounded=1;whiteSpace=wrap;html=1;fillColor=#fff2cc;strokeColor=#d6b656;" vertex="1" parent="1">
          <mxGeometry x="-180" y="870" width="100" height="40" as="geometry" />
        </mxCell>
        <mxCell id="sVJqD786YdZGdAk7iiqr-77" value="Coming Soon" style="rounded=1;whiteSpace=wrap;html=1;fillColor=#fff2cc;strokeColor=#d6b656;" vertex="1" parent="1">
          <mxGeometry x="-180" y="920" width="100" height="40" as="geometry" />
        </mxCell>
        <mxCell id="sVJqD786YdZGdAk7iiqr-78" value="Coming Soon" style="rounded=1;whiteSpace=wrap;html=1;fillColor=#fff2cc;strokeColor=#d6b656;" vertex="1" parent="1">
          <mxGeometry x="-180" y="970" width="100" height="40" as="geometry" />
        </mxCell>
        <mxCell id="sVJqD786YdZGdAk7iiqr-79" value="Coming Soon" style="rounded=1;whiteSpace=wrap;html=1;fillColor=#fff2cc;strokeColor=#d6b656;" vertex="1" parent="1">
          <mxGeometry x="-180" y="1020" width="100" height="40" as="geometry" />
        </mxCell>
        <mxCell id="sVJqD786YdZGdAk7iiqr-80" value="Coming Soon" style="rounded=1;whiteSpace=wrap;html=1;fillColor=#fff2cc;strokeColor=#d6b656;" vertex="1" parent="1">
          <mxGeometry x="-180" y="1070" width="100" height="40" as="geometry" />
        </mxCell>
        <mxCell id="sVJqD786YdZGdAk7iiqr-81" value="Series" style="rounded=0;whiteSpace=wrap;html=1;" vertex="1" parent="1">
          <mxGeometry x="-280" y="1495" width="90" height="40" as="geometry" />
        </mxCell>
        <mxCell id="sVJqD786YdZGdAk7iiqr-82" value="Coming Soon" style="rounded=1;whiteSpace=wrap;html=1;fillColor=#fff2cc;strokeColor=#d6b656;" vertex="1" parent="1">
          <mxGeometry x="-180" y="1515" width="100" height="40" as="geometry" />
        </mxCell>
        <mxCell id="sVJqD786YdZGdAk7iiqr-83" value="Coming Soon" style="rounded=1;whiteSpace=wrap;html=1;fillColor=#fff2cc;strokeColor=#d6b656;" vertex="1" parent="1">
          <mxGeometry x="-180" y="1565" width="100" height="40" as="geometry" />
        </mxCell>
        <mxCell id="sVJqD786YdZGdAk7iiqr-84" value="Coming Soon" style="rounded=1;whiteSpace=wrap;html=1;fillColor=#fff2cc;strokeColor=#d6b656;" vertex="1" parent="1">
          <mxGeometry x="-180" y="1615" width="100" height="40" as="geometry" />
        </mxCell>
        <mxCell id="sVJqD786YdZGdAk7iiqr-85" value="Coming Soon" style="rounded=1;whiteSpace=wrap;html=1;fillColor=#fff2cc;strokeColor=#d6b656;" vertex="1" parent="1">
          <mxGeometry x="-180" y="1665" width="100" height="40" as="geometry" />
        </mxCell>
        <mxCell id="sVJqD786YdZGdAk7iiqr-86" value="Coming Soon" style="rounded=1;whiteSpace=wrap;html=1;fillColor=#fff2cc;strokeColor=#d6b656;" vertex="1" parent="1">
          <mxGeometry x="-180" y="1715" width="100" height="40" as="geometry" />
        </mxCell>
        <mxCell id="sVJqD786YdZGdAk7iiqr-87" value="Coming Soon" style="rounded=1;whiteSpace=wrap;html=1;fillColor=#fff2cc;strokeColor=#d6b656;" vertex="1" parent="1">
          <mxGeometry x="-180" y="1765" width="100" height="40" as="geometry" />
        </mxCell>
        <mxCell id="sVJqD786YdZGdAk7iiqr-89" value="Coming Soon" style="rounded=1;whiteSpace=wrap;html=1;fillColor=#fff2cc;strokeColor=#d6b656;" vertex="1" parent="1">
          <mxGeometry x="-180" y="1180" width="100" height="40" as="geometry" />
        </mxCell>
        <mxCell id="sVJqD786YdZGdAk7iiqr-90" value="Coming Soon" style="rounded=1;whiteSpace=wrap;html=1;fillColor=#fff2cc;strokeColor=#d6b656;" vertex="1" parent="1">
          <mxGeometry x="-180" y="1230" width="100" height="40" as="geometry" />
        </mxCell>
        <mxCell id="sVJqD786YdZGdAk7iiqr-91" value="Coming Soon" style="rounded=1;whiteSpace=wrap;html=1;fillColor=#fff2cc;strokeColor=#d6b656;" vertex="1" parent="1">
          <mxGeometry x="-180" y="1280" width="100" height="40" as="geometry" />
        </mxCell>
        <mxCell id="sVJqD786YdZGdAk7iiqr-92" value="Coming Soon" style="rounded=1;whiteSpace=wrap;html=1;fillColor=#fff2cc;strokeColor=#d6b656;" vertex="1" parent="1">
          <mxGeometry x="-180" y="1330" width="100" height="40" as="geometry" />
        </mxCell>
        <mxCell id="sVJqD786YdZGdAk7iiqr-93" value="Coming Soon" style="rounded=1;whiteSpace=wrap;html=1;fillColor=#fff2cc;strokeColor=#d6b656;" vertex="1" parent="1">
          <mxGeometry x="-180" y="1380" width="100" height="40" as="geometry" />
        </mxCell>
        <mxCell id="sVJqD786YdZGdAk7iiqr-94" value="Coming Soon" style="rounded=1;whiteSpace=wrap;html=1;fillColor=#fff2cc;strokeColor=#d6b656;" vertex="1" parent="1">
          <mxGeometry x="-180" y="1430" width="100" height="40" as="geometry" />
        </mxCell>
      </root>
    </mxGraphModel>
  </diagram>
</mxfile>
